<svg xmlns="http://www.w3.org/2000/svg" xmlns:xlink="http://www.w3.org/1999/xlink" width="16" height="16" x="0" y="0" version="1.1" viewBox="0 0 128 160"><path fill="#FFF" d="M61.339,126c-0.516,0-1.029-0.199-1.418-0.589l-7.452-7.486c-0.651-0.654-0.77-1.669-0.288-2.457 l2.757-4.496l-4.374,2.804c-0.792,0.508-1.832,0.396-2.497-0.272l-10.639-10.687c-0.565-0.568-0.737-1.418-0.437-2.161 l2.623-6.49l-5.733,3.068c-0.777,0.417-1.738,0.275-2.361-0.352L17.747,83.046c-0.459-0.461-0.665-1.117-0.552-1.758l0.793-4.495 l-4.025,1.047c-0.687,0.18-1.418-0.021-1.921-0.524l-9.459-9.501c-0.478-0.48-0.68-1.168-0.538-1.831 c0.142-0.662,0.609-1.207,1.242-1.449c0.27-0.104,27.298-10.656,53.598-39.251c0.37-0.401,0.887-0.635,1.433-0.646 c0.544-0.025,1.072,0.202,1.457,0.588l44.046,44.245c0.534,0.536,0.72,1.328,0.479,2.045 c-9.273,27.722-40.388,52.98-41.708,54.042C62.225,125.854,61.781,126,61.339,126z M56.414,116.218l5.049,5.071 c6.063-5.167,30.398-26.924,38.642-49.882L58.406,29.521c-21.817,23.194-43.351,34.175-50.9,37.568l6.561,6.59l5.928-1.542 c0.659-0.171,1.36,0.004,1.86,0.466c0.5,0.462,0.731,1.146,0.613,1.817l-1.153,6.539l11.993,12.046l9.288-4.97 c0.743-0.399,1.655-0.287,2.28,0.275c0.626,0.563,0.833,1.457,0.518,2.237l-4.197,10.382l8.569,8.607l10.361-6.644 c0.785-0.503,1.814-0.397,2.479,0.255c0.666,0.652,0.792,1.679,0.305,2.474L56.414,116.218z"/><path d="M94.599,88.958c-0.514,0-1.026-0.196-1.417-0.589L44.95,39.922c-0.779-0.783-0.776-2.049,0.006-2.829 c0.782-0.778,2.049-0.777,2.829,0.006l48.23,48.448c0.779,0.783,0.776,2.049-0.006,2.829 C95.619,88.764,95.109,88.958,94.599,88.958z"/><path fill="#FFF" d="M85.818,56.223c-0.511,0-1.021-0.194-1.411-0.583c-0.782-0.779-0.785-2.046-0.006-2.829l35.734-35.896 c2.482-2.494,2.482-6.552,0-9.046c-1.2-1.206-2.795-1.869-4.49-1.869c-1.696,0-3.291,0.664-4.491,1.869L75.42,43.765 c-0.779,0.783-2.044,0.785-2.828,0.006c-0.782-0.779-0.785-2.046-0.006-2.829L108.32,5.047C110.276,3.082,112.878,2,115.646,2 c2.767,0,5.368,1.082,7.324,3.047c4.032,4.05,4.032,10.641,0,14.691L87.235,55.634C86.845,56.026,86.332,56.223,85.818,56.223z"/></svg>